<svg width="15" height="27" viewBox="0 0 15 27" fill="none" xmlns="http://www.w3.org/2000/svg">
<g clip-path="url(#clip0_2699_483)">
<g clip-path="url(#clip1_2699_483)">
<path d="M11.7869 10.8406C14.1604 8.52815 14.2099 4.7294 11.8975 2.35595C9.58509 -0.0175 5.78634 -0.067 3.41289 2.2454C1.03944 4.5578 0.989944 8.35655 3.30234 10.73C3.33879 10.7674 3.3757 10.8043 3.41305 10.8406C1.56999 11.7823 0.407194 13.6746 0.399994 15.7443V25.8002C0.399844 26.4627 0.936844 27 1.59939 27.0002C1.59954 27.0002 1.59984 27.0002 1.59999 27.0002H13.6C14.2625 27.0003 14.7998 26.4633 14.8 25.8008C14.8 25.8006 14.8 25.8003 14.8 25.8002V15.7443C14.7928 13.6746 13.6301 11.7823 11.7869 10.8406ZM7.59999 2.95565C9.58825 2.95565 11.2 4.5674 11.2 6.55565C11.2 8.5439 9.58825 10.1557 7.59999 10.1557C5.61174 10.1557 3.99999 8.5439 3.99999 6.55565C4.00209 4.5683 5.61264 2.9579 7.59999 2.95565ZM12.4 24.6002H2.79999V15.7443C2.80239 14.0087 4.20894 12.6023 5.94474 12.6002H9.25525C10.9909 12.6023 12.3976 14.0087 12.4 15.7443V24.6002V24.6002Z" fill="black"/>
</g>
</g>
<defs>
<clipPath id="clip0_2699_483">
<rect width="14.4" height="26.4572" fill="white" transform="translate(0.399994 0.542969)"/>
</clipPath>
<clipPath id="clip1_2699_483">
<rect width="14.4" height="26.4572" fill="white" transform="translate(0.399994 0.542969)"/>
</clipPath>
</defs>
</svg>
